<svg xmlns="http://www.w3.org/2000/svg" viewBox="0 0 64 64" width="64" height="64" role="img" aria-label="spritebit" shape-rendering="crispEdges">
  <rect width="64" height="64" rx="14" fill="#202027"/>
  <rect x="44" y="8" width="4" height="4" fill="#6ed49a"/>
  <rect x="48" y="8" width="4" height="4" fill="#6ed49a"/>
  <rect x="52" y="8" width="4" height="4" fill="#6ed49a"/>
  <rect x="44" y="12" width="4" height="4" fill="#6ed49a"/>
  <rect x="48" y="12" width="4" height="4" fill="#6ed49a"/>
  <rect x="52" y="12" width="4" height="4" fill="#6ed49a"/>
  <rect x="44" y="16" width="4" height="4" fill="#6ed49a"/>
  <rect x="48" y="16" width="4" height="4" fill="#6ed49a"/>
  <rect x="52" y="16" width="4" height="4" fill="#6ed49a"/>
  <rect x="32" y="20" width="4" height="4" fill="#6ec9b3"/>
  <rect x="36" y="20" width="4" height="4" fill="#6ec9b3"/>
  <rect x="40" y="20" width="4" height="4" fill="#6ec9b3"/>
  <rect x="32" y="24" width="4" height="4" fill="#6ec9b3"/>
  <rect x="36" y="24" width="4" height="4" fill="#6ec9b3"/>
  <rect x="40" y="24" width="4" height="4" fill="#6ec9b3"/>
  <rect x="32" y="28" width="4" height="4" fill="#6ec9b3"/>
  <rect x="36" y="28" width="4" height="4" fill="#6ec9b3"/>
  <rect x="40" y="28" width="4" height="4" fill="#6ec9b3"/>
  <rect x="20" y="32" width="4" height="4" fill="#6eb3e5"/>
  <rect x="24" y="32" width="4" height="4" fill="#6eb3e5"/>
  <rect x="28" y="32" width="4" height="4" fill="#6eb3e5"/>
  <rect x="20" y="36" width="4" height="4" fill="#6eb3e5"/>
  <rect x="24" y="36" width="4" height="4" fill="#6eb3e5"/>
  <rect x="28" y="36" width="4" height="4" fill="#6eb3e5"/>
  <rect x="20" y="40" width="4" height="4" fill="#6eb3e5"/>
  <rect x="24" y="40" width="4" height="4" fill="#6eb3e5"/>
  <rect x="28" y="40" width="4" height="4" fill="#6eb3e5"/>
  <rect x="8" y="44" width="4" height="4" fill="#6ea8fe"/>
  <rect x="12" y="44" width="4" height="4" fill="#6ea8fe"/>
  <rect x="16" y="44" width="4" height="4" fill="#6ea8fe"/>
  <rect x="8" y="48" width="4" height="4" fill="#6ea8fe"/>
  <rect x="12" y="48" width="4" height="4" fill="#6ea8fe"/>
  <rect x="16" y="48" width="4" height="4" fill="#6ea8fe"/>
  <rect x="8" y="52" width="4" height="4" fill="#6ea8fe"/>
  <rect x="12" y="52" width="4" height="4" fill="#6ea8fe"/>
  <rect x="16" y="52" width="4" height="4" fill="#6ea8fe"/>
  <rect x="1.0" y="1.0" width="62.0" height="62.0" rx="13.0" fill="none" stroke="#ffffff" stroke-opacity="0.14" stroke-width="2.0" shape-rendering="geometricPrecision"/>
</svg>
